Coordinates
version=1
nRows=26
nColumns=24
inDegrees=yes

Units are S.I. units (second, meters, Newtons, ...)
Angles are in degrees.

endheader
time	pelvis_tilt	pelvis_list	pelvis_rotation	pelvis_tx	pelvis_ty	pelvis_tz	hip_flexion_r	hip_adduction_r	hip_rotation_r	knee_angle_r	ankle_angle_r	subtalar_angle_r	mtp_angle_r	hip_flexion_l	hip_adduction_l	hip_rotation_l	knee_angle_l	ankle_angle_l	subtalar_angle_l	mtp_angle_l	lumbar_extension	lumbar_bending	lumbar_rotation
      0.57900000	      0.91038531	      2.04961532	     -2.86756783	     -0.77388400	      0.98508901	      0.30610131	     19.79483618	     -1.36904659	     -1.83154093	      4.36446540	     -0.97866029	     -2.62974195	      3.21273312	    -20.98404850	      7.27528736	      8.04128082	     -1.21169433	     12.65537341	    -12.85641552	     -7.22335204	    -11.15354760	      7.03973337	    -11.30501923
      0.58316667	      0.90321419	      1.86504506	     -2.88345578	     -0.76819645	      0.98441033	      0.30655911	     19.73325705	     -1.11639157	     -1.40000557	      4.25567046	     -1.31778300	     -3.10157842	      3.25318254	    -21.08984330	      7.09257922	      7.84122172	     -1.73029079	     12.88297920	    -12.56798880	     -7.20112482	    -11.15580732	      7.27511536	    -11.21638941
      0.58733333	      0.85625050	      1.68344854	     -2.88779869	     -0.76249204	      0.98373643	      0.30698398	     19.76849848	     -0.87212841	     -1.06615913	      3.96096750	     -1.56947947	     -3.38199941	      3.30647321	    -21.11354257	      6.91137072	      7.60545821	     -2.32799442	     13.16097181	    -12.19248368	     -7.14715273	    -11.09194564	      7.52748454	    -11.18805866
      0.59150000	      0.81221827	      1.47470443	     -2.89417890	     -0.75675215	      0.98310846	      0.30742921	     19.80667337	     -0.59915209	     -0.72703818	      3.59023228	     -1.87337922	     -3.71930688	      3.35933333	    -21.13563552	      6.70237492	      7.37322389	     -2.94138598	     13.40196696	    -11.83773235	     -7.07170159	    -11.04624837	      7.79603014	    -11.14136795
      0.59566667	      0.77020658	      1.25464296	     -2.90130698	     -0.75098910	      0.98252349	      0.30788857	     19.85508040	     -0.31366531	     -0.38250699	      3.13923125	     -2.21141019	     -4.10431977	      3.41377790	    -21.13383841	      6.48388918	      7.11173699	     -3.61119736	     13.63826226	    -11.48435008	     -6.97020842	    -10.99272406	      8.08918217	    -11.09264269
      0.59983333	      0.71273085	      1.02152739	     -2.91033167	     -0.74518417	      0.98196881	      0.30837688	     19.92804386	     -0.01148668	     -0.03694761	      2.62144335	     -2.59304892	     -4.53041200	      3.46862853	    -21.10299677	      6.25004705	      6.85007610	     -4.30665807	     13.84241380	    -11.13338492	     -6.84165104	    -10.92769529	      8.38877408	    -11.03889858
      0.60400000	      0.67461139	      0.76894410	     -2.92232431	     -0.73934947	      0.98147193	      0.30887691	     19.98751853	      0.31144491	      0.30641025	      2.04581847	     -3.00570968	     -4.99874469	      3.52460442	    -21.07467333	      5.99884567	      6.55658121	     -5.04582565	     14.03084044	    -10.77079009	     -6.68115657	    -10.88365100	      8.71335513	    -10.97294338
      0.60816667	      0.65637116	      0.49994888	     -2.93219266	     -0.73347849	      0.98104636	      0.30940019	     20.03670283	      0.65250540	      0.61349371	      1.40822023	     -3.40863409	     -5.46188953	      3.63048286	    -21.04996880	      5.72758180	      6.22587879	     -5.82004179	     14.23419596	    -10.34658449	     -6.34366066	    -10.86471855	      9.06350368	    -10.91041013
      0.61233333	      0.56270956	      0.25973048	     -2.94591147	     -0.72758701	      0.98056516	      0.30992565	     20.19121574	      0.96941149	      0.92306542	      0.70073896	     -3.86819778	     -5.96258269	      3.67444020	    -20.92968733	      5.48993163	      5.98846618	     -6.61472474	     14.27733045	    -10.14568822	     -6.15498269	    -10.73968726	      9.37399480	    -10.83772874
      0.61650000	      0.51128819	     -0.01924250	     -2.95859432	     -0.72165660	      0.98017115	      0.31048671	     20.29237657	      1.32773666	      1.22233662	     -0.02250351	     -4.33245718	     -6.51806879	      3.72617764	    -20.82788707	      5.20801565	      5.66132135	     -7.47913364	     14.37868450	     -9.78588203	     -5.88869404	    -10.67853354	      9.72832004	    -10.76903585
      0.62066667	      0.44659919	     -0.29018819	     -2.97418380	     -0.71569591	      0.97980157	      0.31105674	     20.43070621	      1.68032246	      1.47803703	     -0.81396066	     -4.76820336	     -7.03181974	      3.77383527	    -20.69853562	      4.93474111	      5.34839668	     -8.36091816	     14.41007636	     -9.49405940	     -5.58777306	    -10.59290658	     10.07496099	    -10.68939361
      0.62483333	      0.39260074	     -0.57471073	     -2.98979013	     -0.70970640	      0.97947658	      0.31163796	     20.56074130	      2.04765169	      1.70914961	     -1.63041846	     -5.19057462	     -7.55341336	      3.81465457	    -20.56218930	      4.64794102	      5.03711986	     -9.28804180	     14.39374722	     -9.22769586	     -5.25888855	    -10.51762599	     10.43835285	    -10.61334293
      0.62900000	      0.42572667	     -0.90375396	     -2.98008731	     -0.70366768	      0.97931519	      0.31221249	     20.57945233	      2.44969151	      1.88431751	     -2.43887633	     -5.56336272	     -8.08919706	      3.92470509	    -20.49342114	      4.29843522	      4.63166639	    -10.26307139	     14.43175567	     -8.75185964	     -4.24674121	    -10.55932963	     10.85858168	    -10.54510439
      0.63316667	      0.29364193	     -1.14350916	     -3.00842834	     -0.69765079	      0.97896119	      0.31281698	     20.84317393	      2.78012869	      2.06577271	     -3.38047814	     -5.90099324	     -8.53184672	      3.94531300	    -20.25278345	      4.06704399	      4.45279444	    -11.20909856	     14.18785034	     -8.78114617	     -3.93012712	    -10.38644997	     11.15073593	    -10.45634276
      0.63733333	      0.34578547	     -1.49689876	     -3.03388808	     -0.69154483	      0.97888089	      0.31345539	     20.84705807	      3.21925971	      2.22434476	     -4.22447085	     -6.23905659	     -9.00899335	      4.03473447	    -20.16727184	      3.69583543	      3.94270781	    -12.25936839	     14.12677865	     -8.28650397	     -2.25553360	    -10.44010390	     11.62125425	    -10.41176345
      0.64150000	      0.21541635	     -1.71748058	     -3.01831769	     -0.68550814	      0.97862174	      0.31401766	     21.11641962	      3.51608014	      2.32200944	     -5.21047686	     -6.41228908	     -9.44602389	      4.03730895	    -19.86978569	      3.47009327	      3.84182411	    -13.29964287	     13.74454796	     -8.40476972	     -1.97424560	    -10.26171060	     11.88749340	    -10.30505821
      0.64566667	      0.15867269	     -1.99232844	     -3.01930109	     -0.67942264	      0.97848579	      0.31462117	     21.27913009	      3.87126871	      2.42229745	     -6.15770360	     -6.53879317	     -9.84887860	      4.03427441	    -19.61283305	      3.17815923	      3.54057798	    -14.42422210	     13.43854879	     -8.25087670	     -1.57736581	    -10.16854511	     12.24284029	    -10.24059067
      0.64983333	      0.19269657	     -2.29425518	     -3.00923149	     -0.67332491	      0.97851638	      0.31523287	     21.32923214	      4.25028886	      2.49776450	     -7.08705629	     -6.65599296	    -10.32931343	      3.87693050	    -19.44579072	      2.84907799	      3.21666531	    -15.53729579	     12.98096228	     -8.10393419	      4.41234058	    -10.20357871	     12.62128121	    -10.14605380
      0.65400000	      0.14192756	     -2.55690843	     -2.98877771	     -0.66723092	      0.97847379	      0.31579236	     21.49499352	      4.58028193	      2.50004554	     -8.07397230	     -6.61390452	    -10.56671486	      3.86686361	    -19.14460070	      2.56107323	      2.96646197	    -16.73296482	     12.52213730	     -8.02078446	      4.48843757	    -10.11146421	     12.96636940	    -10.10414360
      0.65816667	      0.12594478	     -2.82787220	     -2.97028887	     -0.66113520	      0.97851541	      0.31638144	     21.60510235	      4.92269461	      2.52831924	     -9.03565136	     -6.49396451	    -10.85905381	      3.84788918	    -18.85194979	      2.25711324	      2.68529307	    -17.96929195	     12.00567893	     -7.90294615	      4.63323771	    -10.06860789	     13.31098541	    -10.04986511
      0.66233333	      0.11713348	     -3.10170429	     -2.93357041	     -0.65504239	      0.97860549	      0.31695993	     21.69842451	      5.26215842	      2.52740260	     -9.98915162	     -6.30679960	    -11.12715553	      3.81922556	    -18.52597234	      1.93440785	      2.38670686	    -19.27000081	     11.44204213	     -7.75674281	      4.84669922	    -10.03396367	     13.65391215	     -9.99574317
      0.66650000	      0.14776317	     -3.37885220	     -2.87981445	     -0.64897075	      0.97878393	      0.31753080	     21.73889755	      5.60092035	      2.50903115	    -10.92909009	     -6.06789773	    -11.43362314	      3.05910651	    -18.20931317	      1.58915773	      2.06276173	    -20.60374404	     10.75906276	     -7.56107178	      9.66977470	    -10.04734809	     14.01109411	     -9.96902301
      0.67066667	      0.16853487	     -3.66172948	     -2.83204097	     -0.64287067	      0.97901103	      0.31807696	     21.76310949	      5.94311142	      2.49340152	    -11.82394623	     -5.74863162	    -11.62290056	      3.05252547	    -17.87455083	      1.25055075	      1.81756889	    -21.93812673	      9.96870340	     -7.52488752	      9.71039920	    -10.05143060	     14.37117999	     -9.89774577
      0.67483333	      0.16668223	     -3.89653048	     -2.76372873	     -0.63685013	      0.97921369	      0.31861636	     21.82689553	      6.22835760	      2.42897195	    -12.74495577	     -5.34070609	    -11.76636583	      3.02142989	    -17.42858177	      0.92686780	      1.49356124	    -23.40846566	      9.23090628	     -7.30422111	      9.88118674	    -10.00065294	     14.66745294	     -9.85132252
      0.67900000	      0.19535360	     -4.17288353	     -2.69419234	     -0.63080235	      0.97950946	      0.31917291	     21.81135249	      6.56033395	      2.40422261	    -13.58408413	     -4.88909527	    -11.92382882	      2.98233350	    -17.01594723	      0.55674095	      1.20067982	    -24.86151346	      8.35473441	     -7.15012469	     10.08754778	    -10.01205377	     14.99565626	     -9.81255046
      0.68316667	      0.25030276	     -4.41336113	     -2.58640819	     -0.62480014	      0.97987532	      0.31964328	     21.77990822	      6.83054098	      2.27019460	    -14.44938344	     -4.33418611	    -11.93192905	      1.88561669	    -16.59393484	      0.20536489	      0.95026345	    -26.33085187	      7.28851500	     -7.01135109	     14.84717258	    -10.02951273	     15.32324758	     -9.91852499
